<svg width="29" height="29" viewBox="0 0 29 29" fill="none" xmlns="http://www.w3.org/2000/svg">
<path opacity="0.4" d="M5.7706 18.9727C3.88394 20.0927 -1.06272 22.386 1.95062 25.266C3.42128 26.666 5.05999 27.666 7.12132 27.666L18.8786 27.666C20.9399 27.666 22.5786 26.666 24.0493 25.266C27.0626 22.386 22.116 20.0927 20.2293 18.9727C15.8067 16.346 10.1933 16.346 5.7706 18.9727Z" fill="url(#paint0_linear_4045_54)"/>
<path fill-rule="evenodd" clip-rule="evenodd" d="M14.3333 14C10.4733 14 7.33333 10.86 7.33333 7C7.33333 3.14 10.4733 0 14.3333 0C18.1933 0 21.3333 3.14 21.3333 7C21.3333 10.86 18.1933 14 14.3333 14ZM14.3333 2C11.576 2 9.33333 4.24267 9.33333 7C9.33333 9.75733 11.576 12 14.3333 12C17.0907 12 19.3333 9.75733 19.3333 7C19.3333 4.24267 17.0907 2 14.3333 2Z" fill="url(#paint1_linear_4045_54)"/>
<path d="M15.667 28.6672L7.12167 28.6672C5.04167 28.6672 3.17898 27.8165 1.26164 25.9912C0.310976 25.0819 -0.106363 24.1006 0.0229707 23.0726C0.290971 20.9259 2.91099 19.4459 4.64433 18.4672C4.87233 18.3392 5.08031 18.2205 5.26164 18.1138C9.78564 15.4232 15.4857 15.2926 20.139 17.7713C20.627 18.0313 20.811 18.6365 20.551 19.1245C20.291 19.6125 19.6856 19.7965 19.1976 19.5365C15.159 17.3845 10.2097 17.4979 6.283 19.8339C6.11281 19.9344 5.91955 20.0443 5.70977 20.1636L5.62831 20.2099L5.62024 20.2145C4.40365 20.9023 2.152 22.1751 2.00832 23.3219C1.99099 23.4579 1.93896 23.8725 2.64296 24.5459C4.18429 26.0139 5.56697 26.6685 7.12297 26.6685L15.6683 26.6685C16.2203 26.6685 16.6683 27.1165 16.6683 27.6685C16.6683 28.2205 16.2203 28.6685 15.6683 28.6685L15.667 28.6672Z" fill="url(#paint2_linear_4045_54)"/>
<path d="M28.0005 17.9429C28.5211 17.7585 28.7937 17.187 28.6093 16.6664C28.4249 16.1458 27.8534 15.8733 27.3328 16.0576C26.2194 16.452 25.1373 17.2118 24.1691 18.0609C23.1905 18.9192 22.2715 19.9193 21.487 20.8597C20.7801 21.707 20.1725 22.5179 19.7178 23.1535C19.2602 22.5316 18.8059 22.1134 18.388 21.8349C18.0511 21.6103 17.5523 21.3336 17 21.3336C16.4477 21.3336 16 21.7813 16 22.3336C16 22.8637 16.4124 23.2974 16.9339 23.3315C16.9812 23.345 17.1155 23.3903 17.2786 23.499C17.6029 23.7152 18.1649 24.2328 18.7722 25.4475C18.9334 25.7698 19.2556 25.9805 19.6155 25.999C19.9754 26.0174 20.3176 25.8404 20.5109 25.5363C20.6296 25.358 20.9821 24.8292 21.2042 24.5145C21.6492 23.884 22.2798 23.0315 23.0228 22.1409C23.7677 21.2479 24.6135 20.3314 25.4878 19.5646C26.3725 18.7888 27.2316 18.2152 28.0005 17.9429Z" fill="url(#paint3_linear_4045_54)"/>
<defs>
<linearGradient id="paint0_linear_4045_54" x1="-4.45425" y1="32.5226" x2="30.0298" y2="32.5226" gradientUnits="userSpaceOnUse">
<stop stop-color="#78A86D"/>
<stop offset="1" stop-color="#0A4724"/>
</linearGradient>
<linearGradient id="paint1_linear_4045_54" x1="-6.51488" y1="41.7254" x2="34.6749" y2="41.7254" gradientUnits="userSpaceOnUse">
<stop stop-color="#78A86D"/>
<stop offset="1" stop-color="#0A4724"/>
</linearGradient>
<linearGradient id="paint2_linear_4045_54" x1="-6.51488" y1="41.7254" x2="34.6749" y2="41.7254" gradientUnits="userSpaceOnUse">
<stop stop-color="#78A86D"/>
<stop offset="1" stop-color="#0A4724"/>
</linearGradient>
<linearGradient id="paint3_linear_4045_54" x1="-6.51488" y1="41.7254" x2="34.6749" y2="41.7254" gradientUnits="userSpaceOnUse">
<stop stop-color="#78A86D"/>
<stop offset="1" stop-color="#0A4724"/>
</linearGradient>
</defs>
</svg>
