<svg width="29" height="29" viewBox="0 0 29 29" fill="none" xmlns="http://www.w3.org/2000/svg">
<path d="M11.0556 29C8.94461 29 6.95369 28.3265 5.29808 27.0521C4.9878 26.8132 4.69252 26.5554 4.41392 26.2801C2.48135 24.3702 1.50883 21.8265 1.67592 19.1173C1.80222 17.0698 2.62691 15.0959 3.99931 13.5592C5.81691 11.5241 8.32269 10.4032 11.0562 10.4032C11.5257 10.4032 11.9998 10.4383 12.4665 10.5074L13.1915 10.615V17.0488L12.0751 16.6801C11.7508 16.5727 11.4114 16.518 11.0698 16.5181C10.2054 16.5181 9.39603 16.8568 8.79054 17.4714C8.18789 18.0831 7.86334 18.8919 7.8758 19.75C7.89222 20.8562 8.47506 21.8587 9.43455 22.4331C9.87635 22.697 10.3793 22.8517 10.8902 22.88C11.2935 22.9021 11.6917 22.8494 12.0746 22.7231C13.3835 22.2909 14.2632 21.0765 14.2632 19.7019L14.2688 13.0296V0H20.4177L20.4251 0.84168C20.4285 1.22287 20.4676 1.60406 20.5412 1.97336C20.8301 3.42563 21.6446 4.71986 22.8346 5.61705C23.8909 6.41398 25.1518 6.83482 26.4794 6.83482C26.5106 6.83482 26.5106 6.83482 26.7943 6.85465L27.5845 6.91016V12.9707L27.3013 12.9701H26.4466C24.8091 12.9701 23.2747 12.658 21.7539 12.0163C21.3008 11.8249 20.8595 11.6062 20.4336 11.3621L20.4529 19.7342C20.4427 22.2105 19.4639 24.5333 17.6973 26.2796C16.2637 27.6961 14.4546 28.6012 12.4654 28.8958C11.9987 28.9651 11.5275 29 11.0556 29ZM11.0556 12.1024C8.8132 12.1024 6.75715 13.0217 5.26637 14.6909C4.14715 15.9443 3.47426 17.5535 3.37117 19.2216C3.23523 21.4334 4.02933 23.511 5.60791 25.0708C5.83617 25.2963 6.08029 25.5098 6.33404 25.7052C7.69002 26.7491 9.32297 27.3008 11.0556 27.3008C11.4442 27.3008 11.8344 27.2719 12.2167 27.2153C13.8463 26.974 15.3286 26.2325 16.5033 25.0714C17.9465 23.6452 18.7457 21.7494 18.7542 19.733L18.7276 8.04297L20.1 9.10158C20.8106 9.64924 21.5888 10.1031 22.4154 10.4519C23.5466 10.9294 24.6867 11.1945 25.8847 11.2573V8.51309C24.4041 8.40207 23.0056 7.87588 21.8111 6.97473C20.2875 5.82605 19.2447 4.16762 18.8743 2.30584C18.8346 2.1059 18.8023 1.90369 18.7786 1.69979H15.9675V13.0302L15.9618 19.7024C15.9618 21.8112 14.6138 23.6735 12.607 24.3362C12.0219 24.5294 11.413 24.6098 10.7968 24.5764C10.0117 24.5333 9.23914 24.296 8.56172 23.891C7.09303 23.0125 6.20094 21.4736 6.17601 19.7749C6.15676 18.4586 6.65463 17.2171 7.579 16.2785C8.50621 15.3371 9.74551 14.8189 11.0686 14.8189C11.2102 14.8189 11.3507 14.8251 11.4912 14.837V12.1143C11.3462 12.1064 11.2006 12.1024 11.0556 12.1024Z" fill="white"/>
</svg>
