<svg width="34" height="34" viewBox="0 0 34 34" fill="none" xmlns="http://www.w3.org/2000/svg">
<path fill-rule="evenodd" clip-rule="evenodd" d="M11.1137 6.7604C14.7857 6.24049 19.2142 6.24049 22.8862 6.7604C26.2225 7.23357 28.8079 9.5739 29.3009 12.0956C29.9001 15.1485 29.9001 18.8432 29.3009 21.8961C28.8065 24.4177 26.2225 26.7581 22.8862 27.2312C19.2142 27.7512 14.7843 27.7512 11.1137 27.2312C7.77747 26.7581 5.19347 24.4177 4.69905 21.8961C4.0998 18.8432 4.0998 15.1485 4.69905 12.0956C5.19347 9.5739 7.77747 7.23357 11.1137 6.7604ZM23.2829 3.9554C19.3488 3.39865 14.6511 3.39865 10.7171 3.9554C6.44581 4.56032 2.69164 7.60757 1.91955 11.5516C1.24947 14.9643 1.24947 19.0273 1.91955 22.4401C2.69164 26.3841 6.44581 29.4313 10.7171 30.0362C14.6511 30.593 19.3488 30.593 23.2829 30.0362C27.5541 29.4313 31.3083 26.3841 32.0804 22.4401C32.7505 19.0259 32.7505 14.9643 32.0804 11.5516C31.3083 7.60757 27.5541 4.56032 23.2829 3.9554ZM14.9529 10.1505C14.7395 10.0081 14.4915 9.92639 14.2354 9.91394C13.9792 9.9015 13.7244 9.95884 13.4983 10.0798C13.2722 10.2008 13.0831 10.3809 12.9513 10.601C12.8195 10.821 12.7499 11.0727 12.75 11.3292V22.6625C12.7499 22.919 12.8195 23.1706 12.9513 23.3907C13.0831 23.6107 13.2722 23.7908 13.4983 23.9118C13.7244 24.0328 13.9792 24.0901 14.2354 24.0777C14.4915 24.0653 14.7395 23.9835 14.9529 23.8412L23.4529 18.1745C23.6469 18.0451 23.806 17.8698 23.916 17.6642C24.0261 17.4586 24.0836 17.229 24.0836 16.9958C24.0836 16.7626 24.0261 16.533 23.916 16.3274C23.806 16.1218 23.6469 15.9465 23.4529 15.8172L14.9529 10.1505ZM20.1124 16.9958L15.5833 20.0162V13.9769L20.1124 16.9958Z" fill="white"/>
</svg>
