<svg width="169" height="86" viewBox="0 0 169 86" fill="none" xmlns="http://www.w3.org/2000/svg">
<path d="M145.562 77.3527C145.313 78.3011 145.057 79.2001 144.848 80.11C144.639 81.0215 144.502 81.9483 144.447 82.8832C144.392 83.8081 144.36 84.7343 144.315 85.7249C144.212 85.6302 144.139 85.5775 144.084 85.51C142.792 83.9224 141.569 82.2862 140.576 80.4889C139.705 78.9109 139.045 77.2554 138.731 75.4694C138.472 73.995 138.484 72.525 138.716 71.0494C139.134 68.3796 139.966 65.8286 140.915 63.3113C141.258 62.4006 141.626 61.4991 141.975 60.5905C142.282 59.7903 142.555 58.9827 142.657 58.1211C142.767 57.1824 142.602 56.2985 142.228 55.4444C142.126 55.2129 142.003 54.9909 141.888 54.7654C140.515 52.0723 139.388 49.2738 138.367 46.4324C137.745 44.6996 137.417 42.9002 137.374 41.054C137.309 38.2825 137.953 35.6823 139.296 33.2637C140.052 31.9023 140.817 30.5432 141.645 29.2248C143.352 26.5036 145.097 23.8061 146.84 21.1072C148.109 19.142 149.29 17.129 150.259 14.9963C151.239 12.8425 151.982 10.612 152.383 8.27661C152.657 6.67969 152.795 5.06962 152.712 3.44625C152.705 3.31043 152.694 3.17071 152.717 3.03821C152.811 2.48634 152.917 1.93655 153.024 1.36053C153.237 1.46578 153.282 1.64686 153.365 1.79201C154.565 3.8872 155.764 5.98302 156.957 8.082C159.872 13.2111 162.79 18.3387 165.804 23.4103C166.854 25.177 167.67 27.0454 168.174 29.0435C169.02 32.4016 168.866 35.7229 167.791 39.0069C167.292 40.5305 166.618 41.9749 165.811 43.358C164.094 46.3024 162.293 49.1949 160.437 52.0528C157.447 56.658 154.44 61.2527 151.446 65.8557C150.342 67.5534 149.282 69.2787 148.314 71.0593C147.224 73.0646 146.279 75.1332 145.562 77.3527ZM160.634 28.5166C160.933 26.693 160.893 24.8646 160.676 23.0391C160.477 21.373 160.105 19.7401 159.65 18.1262C159.611 17.9893 159.55 17.8586 159.491 17.7024C159.452 17.771 159.428 17.8025 159.415 17.838C159.388 17.9109 159.361 17.9847 159.343 18.0603C158.599 21.2287 157.37 24.2092 155.871 27.0859C154.772 29.1952 153.537 31.2241 152.254 33.2247C152.14 33.4027 152.029 33.5828 151.931 33.7393C152.213 34.3899 155.061 39.2946 155.36 39.6421C155.42 39.563 155.483 39.4945 155.53 39.4161C156.621 37.5956 157.736 35.7885 158.793 33.9484C159.743 32.296 160.337 30.507 160.634 28.5166ZM152.578 42.5983C152.249 42.0249 151.92 41.4512 151.59 40.8782C151.25 40.2883 150.914 39.696 150.566 39.1106C150.235 38.552 149.953 37.962 149.545 37.4014C149.436 37.5491 149.35 37.6525 149.277 37.7649C148.363 39.1886 147.439 40.6063 146.543 42.0418C146.162 42.6511 145.821 43.2874 145.5 43.9304C144.657 45.6164 144.112 47.3973 143.94 49.2777C143.743 51.4225 144.053 53.5092 144.753 55.5404C144.776 55.6066 144.833 55.6609 144.898 55.7558C145.517 54.9369 146.162 54.1834 146.696 53.3469C148.717 50.1832 150.734 47.0169 152.752 43.8509C152.845 43.7052 152.928 43.5533 153.023 43.3919C152.886 43.1444 152.755 42.9078 152.578 42.5983Z" fill="#008CCA"/>
<path d="M60.5737 59.6202C56.4313 59.6202 52.3472 59.616 48.2632 59.6229C47.0642 59.6249 45.9004 59.4467 44.782 59.0125C44.5301 58.9147 44.312 58.9072 44.0572 59.005C42.9197 59.442 41.7388 59.633 40.519 59.6238C38.7299 59.6102 36.9406 59.6198 35.1514 59.6208C34.9412 59.6209 34.7311 59.6289 34.487 59.634C34.4661 59.842 34.4442 60.0112 34.433 60.1812C34.3928 60.7869 34.2788 61.3777 34.0888 61.954C33.9537 62.3636 33.769 62.7487 33.5123 63.0961C33.0433 63.7308 32.4124 64.0749 31.6263 64.1044C31.1257 64.1232 30.6222 64.1335 30.1318 64.0514C30.0374 63.6016 30.0276 61.8743 30.1155 61.276C30.2371 61.2594 30.3674 61.2425 30.4974 61.2237C30.8394 61.1741 31.0629 60.9752 31.1725 60.6552C31.2287 60.4912 31.2711 60.3179 31.287 60.1457C31.3103 59.8941 31.3097 59.6397 31.3098 59.3865C31.3112 56.6383 31.3103 53.8902 31.3115 51.142C31.3116 50.9321 31.3233 50.7221 31.3304 50.4865C31.6893 50.4107 32.0182 50.4526 32.3429 50.4456C32.6928 50.4381 33.043 50.4405 33.393 50.4449C33.7201 50.4491 34.0491 50.424 34.4143 50.4705C34.4279 50.6601 34.4502 50.8283 34.4504 50.9965C34.453 52.6921 34.4514 54.3878 34.4528 56.0835C34.453 56.2749 34.4643 56.4664 34.4716 56.6944C35.2479 56.7716 36.001 56.7206 36.7516 56.7301C37.4906 56.7394 38.2297 56.7321 38.9687 56.7321C39.7231 56.7321 40.4774 56.7321 41.2184 56.7321C41.286 56.5731 41.182 56.5219 41.1178 56.463C40.9456 56.3053 40.7626 56.1596 40.5894 56.003C40.3728 55.8074 40.1638 55.6033 39.9476 55.4071C39.3623 54.8758 39.1013 54.2149 39.1243 53.426C39.1401 52.8825 39.1273 52.3382 39.1273 51.7975C42.2745 49.7382 46.4233 49.739 49.7325 51.7913C49.7325 52.0151 49.737 52.2468 49.7315 52.4784C49.7227 52.8485 49.6963 53.2186 49.6971 53.5887C49.6984 54.2708 49.441 54.843 48.971 55.319C48.6705 55.6233 48.3449 55.9028 48.0293 56.1921C47.8738 56.3346 47.7154 56.474 47.5693 56.6049C47.5911 56.6599 47.5946 56.6811 47.6065 56.6953C47.6169 56.7077 47.6367 56.7192 47.6524 56.7192C49.4802 56.7237 51.308 56.7276 53.1357 56.7289C53.2105 56.7289 53.2853 56.7036 53.3751 56.6874C53.3611 56.5396 53.3607 56.4025 53.3336 56.271C53.1456 55.3602 53.1568 54.4472 53.3451 53.5423C53.4995 52.8 53.7108 52.0696 53.8758 51.3292C53.9355 51.0612 54.0901 50.943 54.3301 50.8586C54.9388 50.6446 55.5656 50.509 56.2018 50.4313C57.2661 50.3014 58.3337 50.2663 59.4018 50.411C60.0613 50.5004 60.7011 50.6442 61.2775 50.9993C61.977 51.4303 62.4212 52.0315 62.5714 52.8532C62.6981 53.5462 62.7501 54.2435 62.7637 54.9454C62.7694 55.2377 62.7714 55.5303 62.7643 55.8224C62.7582 56.0707 62.8472 56.2779 62.9997 56.4651C63.1426 56.6406 63.3162 56.7375 63.5524 56.7342C64.1163 56.7263 64.6804 56.732 65.2444 56.7321C65.7673 56.7322 66.2902 56.7321 66.816 56.7321C66.9561 56.5119 66.8987 56.2922 66.8991 56.0877C66.9039 53.4175 66.9023 50.7473 66.9023 48.0771C66.9023 47.8432 66.8997 47.6093 66.9041 47.3755C66.9058 47.2825 66.9231 47.1898 66.9321 47.1076C67.4163 47.0186 69.4237 47.0126 69.9701 47.092C69.9839 47.1052 70.0012 47.1163 70.0104 47.1321C70.0199 47.1483 70.0256 47.1692 70.0256 47.1881C70.0317 51.2221 70.0373 55.2561 70.0412 59.29C70.0413 59.3667 70.0241 59.4437 70.0113 59.5199C70.0086 59.5361 69.99 59.5497 69.9526 59.5987C69.8696 59.6065 69.7573 59.626 69.6451 59.6261C67.6614 59.628 65.6777 59.6231 63.694 59.6318C63.3675 59.6333 63.0835 59.5582 62.8431 59.3365C62.7801 59.4339 62.7286 59.5134 62.6594 59.6203C61.9901 59.6203 61.3111 59.6203 60.5737 59.6202ZM56.2683 55.7978C56.3494 56.0953 56.3342 56.4185 56.5226 56.7333C56.8541 56.7333 57.2019 56.7333 57.5497 56.7333C57.8804 56.7333 58.2111 56.7388 58.5416 56.7318C58.8848 56.7244 59.2322 56.7665 59.5863 56.6987C59.6 56.5878 59.617 56.5133 59.6173 56.4387C59.6192 55.8735 59.6243 55.3082 59.6141 54.7431C59.6102 54.5302 59.5667 54.3182 59.5447 54.1054C59.5164 53.8322 59.3639 53.6379 59.1526 53.483C58.9447 53.3306 58.7083 53.2564 58.4549 53.208C57.8709 53.0966 57.292 53.1529 56.7131 53.2321C56.6051 53.2469 56.5028 53.304 56.4163 53.3349C56.2256 54.2035 56.1915 54.7267 56.2683 55.7978ZM42.3706 53.83C42.8671 54.653 43.5825 55.2211 44.4168 55.6326C45.5522 55.0404 46.3678 54.2556 46.6518 53.4943C45.8931 52.9901 42.9129 52.9799 42.2375 53.4954C42.2667 53.5756 42.2987 53.6633 42.3706 53.83Z" fill="#1E4381"/>
<path d="M102.24 59.6278C98.4864 59.6278 94.7907 59.6288 91.095 59.6272C89.8901 59.6266 88.6844 59.6596 87.4828 59.5209C87.2143 59.4899 86.9373 59.4926 86.6679 59.5184C85.955 59.5867 85.4982 60.0349 85.3852 60.74C85.2442 61.62 85.7684 62.4048 86.5953 62.4971C86.7298 62.5121 86.862 62.5472 86.9894 62.5719C87.1596 63.0692 87.4186 64.7902 87.3964 65.2992C87.2942 65.3213 87.1856 65.3609 87.0754 65.3658C86.5119 65.3907 85.9508 65.4005 85.3909 65.2842C84.2545 65.0482 83.4082 64.4267 82.8397 63.4178C82.366 62.577 82.2281 61.6588 82.237 60.7119C82.2413 60.2443 82.2773 59.7772 82.4074 59.3232C82.8058 57.933 83.7079 57.1019 85.1333 56.8444C85.8096 56.7223 86.4869 56.7282 87.1675 56.7961C87.6101 56.8403 88.0541 56.87 88.5188 56.908C88.5411 56.7601 88.5717 56.649 88.5723 56.5376C88.5765 55.7774 88.5822 55.017 88.5694 54.257C88.5655 54.0261 88.5217 53.792 88.466 53.5669C88.3829 53.2311 88.1508 53.0316 87.8103 52.9871C87.5801 52.9571 87.3454 52.9542 87.1127 52.954C86.0234 52.9534 84.9342 52.9586 83.845 52.9593C83.7314 52.9593 83.6178 52.9427 83.513 52.9346C83.3912 52.4391 83.3342 51.5079 83.3905 50.9086C83.6739 50.8364 83.9678 50.7419 84.269 50.6882C85.707 50.4319 87.1535 50.2607 88.6184 50.2984C89.0877 50.3104 89.5468 50.3789 89.9963 50.5152C90.9241 50.7964 91.4825 51.407 91.6259 52.3733C91.6772 52.719 91.7135 53.0698 91.7183 53.4189C91.7311 54.3349 91.7216 55.2512 91.7239 56.1674C91.7243 56.3379 91.7378 56.5084 91.7468 56.7147C91.9138 56.7214 92.0451 56.7301 92.1765 56.7316C97.0764 56.7857 103.737 56.7584 104.339 56.6775C104.349 56.5356 104.359 56.3859 104.368 56.236C104.473 54.479 105.705 52.9106 107.373 52.4669C110.317 51.6836 112.342 53.9453 112.532 55.9929C112.554 56.2235 112.576 56.4541 112.6 56.7056C112.926 56.7056 113.229 56.7056 113.518 56.7056C113.551 56.6469 113.584 56.6146 113.584 56.5824C113.581 55.7059 113.61 54.8274 113.561 53.9533C113.493 52.7423 112.918 51.8046 111.877 51.1747C111.353 50.8575 110.766 50.7129 110.163 50.6442C109.483 50.5667 108.802 50.6037 108.127 50.7C107.242 50.8262 106.36 50.9724 105.477 51.1087C105.362 51.1264 105.247 51.1364 105.096 51.1542C105.068 51.0398 105.032 50.9342 105.019 50.8256C104.949 50.2454 104.882 49.6647 104.822 49.0834C104.807 48.9324 104.82 48.7785 104.82 48.6109C105.368 48.4187 105.921 48.3176 106.469 48.2117C107.327 48.046 108.189 47.8895 109.056 47.7851C110.122 47.6566 111.19 47.6772 112.243 47.9389C114.091 48.3984 115.376 49.523 116.118 51.2662C116.487 52.1324 116.694 53.0455 116.722 53.9899C116.743 54.6911 116.734 55.3931 116.741 56.0948C116.743 56.2857 116.754 56.4765 116.761 56.6578C117.213 56.749 120.001 56.7726 120.862 56.6985C120.998 56.5562 120.943 56.3726 120.943 56.2063C120.948 54.5104 120.946 52.8145 120.947 51.1185C120.947 50.9279 120.959 50.7372 120.965 50.557C121.396 50.452 123.362 50.4333 124.044 50.5241C124.058 50.6242 124.085 50.7338 124.085 50.8435C124.088 53.6311 124.088 56.4186 124.086 59.2062C124.086 59.321 124.069 59.4359 124.057 59.5753C123.936 59.5937 123.826 59.6198 123.714 59.6251C123.539 59.6334 123.364 59.6277 123.189 59.6277C116.226 59.6278 109.262 59.6278 102.24 59.6278ZM109.226 56.7316C109.286 56.6929 109.393 56.6603 109.399 56.6144C109.455 56.1921 109.362 55.8028 109.076 55.478C108.71 55.0628 108.154 55.0794 107.826 55.5229C107.576 55.862 107.487 56.2486 107.545 56.6534C107.606 56.6858 107.639 56.7181 107.673 56.7186C108.157 56.7262 108.641 56.7295 109.226 56.7316Z" fill="#1E4381"/>
<path d="M10.8043 56.0208C10.8043 56.2712 10.8043 56.4639 10.8043 56.6776C10.9516 56.6992 11.0628 56.7297 11.174 56.7298C13.7596 56.7325 16.3452 56.7324 18.9308 56.7303C19.0442 56.7302 19.1577 56.7072 19.2834 56.6935C19.3115 56.3426 19.2369 56.0201 19.2013 55.6943C19.1143 54.8973 19.098 54.1017 19.2541 53.3091C19.4795 52.165 20.1266 51.3816 21.217 50.9634C21.8598 50.7167 22.5333 50.6026 23.2099 50.5646C24.9005 50.4695 26.5909 50.478 28.2687 50.7593C28.3061 50.7656 28.3412 50.7854 28.4067 50.8098C28.4203 50.9064 28.4495 51.0174 28.4496 51.1285C28.4521 53.8366 28.4518 56.5448 28.4505 59.2529C28.4505 59.3481 28.436 59.4433 28.4258 59.5686C28.3073 59.5893 28.1987 59.6182 28.0888 59.625C27.9339 59.6345 27.7779 59.6277 27.6224 59.6277C22.9177 59.6277 18.213 59.6286 13.5084 59.6274C10.9229 59.6268 8.33734 59.6245 5.75183 59.6191C4.97351 59.6175 4.20057 59.5511 3.43077 59.4272C1.99258 59.1958 1.144 58.3453 0.830102 56.9471C0.61562 55.9918 0.556435 55.0193 0.64595 54.0428C0.683188 53.6366 0.735131 53.2292 0.817874 52.8301C1.07881 51.5717 1.85596 50.8024 3.10554 50.5547C3.7511 50.4268 4.41233 50.3475 5.06978 50.3165C6.70282 50.2397 8.33458 50.3261 9.96381 50.4449C10.2307 50.4643 10.5034 50.4806 10.749 50.5752C10.7683 50.6304 10.7921 50.6668 10.7922 50.7033C10.7975 52.4566 10.8008 54.2099 10.8043 56.0208ZM7.64391 53.3418C7.5953 53.2396 7.50405 53.2171 7.40386 53.2169C6.62949 53.2157 5.85508 53.2114 5.08078 53.2183C4.92832 53.2197 4.77392 53.2557 4.62445 53.2923C4.20939 53.3939 3.9558 53.6635 3.84929 54.0743C3.69415 54.6728 3.71881 55.2719 3.90052 55.8557C4.02922 56.2693 4.30949 56.5588 4.75805 56.6338C5.00546 56.6752 5.25541 56.7201 5.50506 56.7257C6.12468 56.7396 6.74481 56.7339 7.3647 56.7307C7.45337 56.7303 7.54188 56.6998 7.66 56.6776C7.66 55.5787 7.66 54.5135 7.64391 53.3418ZM22.3796 54.8245C22.3377 56.0513 22.3601 56.2903 22.5555 56.6995C23.3722 56.7748 24.8613 56.7515 25.2996 56.6471C25.3018 56.2937 25.3049 55.9286 25.306 55.5634C25.3071 55.1947 25.3154 54.8256 25.3037 54.4573C25.2921 54.0964 25.3619 53.728 25.2409 53.3642C24.6423 53.3053 24.0632 53.3114 23.4846 53.3534C23.3512 53.363 23.2195 53.4061 23.089 53.4412C22.8057 53.5174 22.6056 53.699 22.525 53.9768C22.4556 54.2164 22.4301 54.4689 22.3796 54.8245Z" fill="#1E4381"/>
<path d="M160.367 75.6731C161.226 76.005 161.684 76.6726 161.876 77.5387C161.973 77.9743 162.03 78.4202 162.08 78.8643C162.243 80.2952 162.393 81.7274 162.548 83.1593C162.55 83.1766 162.536 83.1955 162.529 83.218C162.437 83.3277 162.329 83.322 162.235 83.2271C162.127 83.1166 162.038 82.9872 161.935 82.8708C161.348 82.208 160.616 81.852 159.729 81.861C159.362 81.8647 158.994 81.9078 158.63 81.9593C158.226 82.0164 157.829 82.1196 157.426 82.1725C157.119 82.2127 156.805 82.2302 156.496 82.2148C155.753 82.1779 155.142 81.8644 154.735 81.231C154.516 80.8899 154.328 80.5219 154.176 80.1461C153.83 79.2951 153.638 78.3976 153.494 77.4948C153.285 76.1885 153.114 74.8761 152.926 73.5665C152.904 73.413 152.94 73.2984 153.149 73.2525C153.231 73.321 153.335 73.4018 153.431 73.491C154.075 74.0857 154.843 74.3609 155.709 74.3958C156.374 74.4226 157.025 74.3125 157.679 74.2201C158.024 74.1714 158.374 74.1371 158.722 74.1309C159.487 74.1174 160.115 74.4329 160.624 74.9936C160.789 75.1751 160.958 75.3577 161.061 75.6371C160.843 75.6198 160.703 75.514 160.477 75.4183C160.116 75.2619 159.812 75.2125 159.499 75.2032C158.564 75.1754 157.673 75.4141 156.777 75.6309C157.071 75.652 157.366 75.6877 157.65 75.6455C158.559 75.51 159.463 75.4791 160.367 75.6731Z" fill="#008CCA"/>
<path d="M57.0893 71.2253C57.5983 71.3528 58.0626 71.3395 58.5299 71.31C58.9537 71.2832 59.3786 71.2762 59.8389 71.2591C59.9406 71.7511 59.8897 72.2085 59.8766 72.6783C59.5924 72.8249 59.2935 72.646 58.986 72.743C59.0037 72.822 59.0106 72.8926 59.0352 72.9564C59.2648 73.5505 59.2076 74.147 59.0208 74.7318C58.8786 75.1772 58.5739 75.5 58.1481 75.7041C57.7202 75.9093 57.2669 76.0087 56.7967 76.0257C56.4482 76.0382 56.0989 76.0281 55.7308 76.0281C55.691 76.0989 55.6397 76.1591 55.6208 76.2283C55.4899 76.7091 55.5933 76.8699 56.0919 76.933C56.3226 76.9622 56.5579 76.9515 56.7905 76.9679C57.2942 77.0033 57.7976 77.0437 58.301 77.0841C58.3782 77.0903 58.4555 77.1032 58.5311 77.1203C59.4271 77.322 59.854 77.8381 59.8905 78.7614C59.9444 80.1224 59.3925 80.8811 58.0608 81.2099C56.9676 81.4799 55.8662 81.4742 54.7708 81.1966C54.6583 81.1681 54.5465 81.1334 54.4382 81.0916C53.2516 80.6338 52.9186 79.3818 53.7205 78.3819C53.8658 78.2006 54.0329 78.0368 54.2161 77.8364C54.142 77.7318 54.063 77.6294 53.9938 77.5207C53.7422 77.126 53.7191 76.718 53.9397 76.3025C54.0478 76.0987 54.1645 75.8995 54.2836 75.687C54.2197 75.6147 54.1752 75.5527 54.1197 75.5031C53.2833 74.7561 53.2271 73.4028 53.5904 72.5182C53.836 71.9202 54.3124 71.5626 54.9079 71.3605C55.4671 71.1708 56.0457 71.1127 56.6339 71.1621C56.7693 71.1735 56.9034 71.1999 57.0893 71.2253ZM56.7751 74.5444C57.0528 74.4466 57.2366 74.2539 57.2946 73.9676C57.3567 73.6611 57.372 73.3488 57.2216 73.0574C57.0227 72.6716 56.6655 72.6124 56.2821 72.6123C55.8942 72.6121 55.5417 72.6959 55.3535 73.0786C55.2503 73.2886 55.2099 73.5197 55.2418 73.7588C55.3109 74.2765 55.5932 74.5671 56.1109 74.6126C56.3006 74.6292 56.495 74.5921 56.7751 74.5444ZM55.9699 78.5118C55.7998 78.5118 55.6298 78.5118 55.4296 78.5118C55.3299 78.7185 55.223 78.9012 55.1524 79.0969C55.078 79.303 55.1665 79.4861 55.332 79.6095C55.4371 79.6879 55.5703 79.7413 55.6989 79.7728C56.2734 79.9138 56.8522 79.9076 57.4249 79.767C57.5698 79.7314 57.7134 79.6519 57.8331 79.5605C58.0221 79.4161 58.0476 79.2033 58.0039 78.9799C57.9639 78.7749 57.8025 78.6999 57.6301 78.6611C57.4616 78.6231 57.2864 78.6118 57.1135 78.5974C56.7664 78.5685 56.4188 78.5455 55.9699 78.5118Z" fill="#1E4381"/>
<path d="M27.0786 78.2012C26.5944 78.2012 26.1675 78.2012 25.7185 78.2012C25.6687 78.0587 25.6086 77.9375 25.5841 77.8095C25.1964 75.7828 24.8123 73.7554 24.4312 71.7275C24.4069 71.5982 24.4129 71.4631 24.4041 71.3174C24.5045 71.2994 24.5792 71.2748 24.6541 71.2743C25.1384 71.2708 25.6227 71.2725 26.1227 71.2725C26.1691 71.4047 26.2237 71.5084 26.2412 71.618C26.4856 73.1564 26.7245 74.6957 26.9666 76.2345C26.9816 76.3294 27.0016 76.427 27.0413 76.5131C27.0599 76.5535 27.1301 76.589 27.1786 76.5914C27.2278 76.5938 27.3032 76.5661 27.3245 76.5279C27.3704 76.445 27.3984 76.3489 27.4174 76.2548C27.6953 74.881 27.9701 73.5065 28.2467 72.1324C28.2924 71.9053 28.3431 71.6793 28.3884 71.4674C28.8947 71.3864 29.8074 71.3865 30.3099 71.4673C30.4335 72.0616 30.5626 72.6686 30.6857 73.2769C30.8866 74.269 31.0828 75.2622 31.2836 76.2544C31.3026 76.3483 31.3294 76.4445 31.3748 76.5274C31.3958 76.5657 31.4715 76.5936 31.5206 76.5911C31.5691 76.5887 31.6419 76.5523 31.6574 76.5125C31.6992 76.4057 31.7238 76.2903 31.7417 76.1761C31.9841 74.6374 32.2236 73.0983 32.4662 71.5596C32.4779 71.4854 32.5106 71.4145 32.5303 71.3522C32.9523 71.249 33.7476 71.24 34.2867 71.3312C34.291 71.4019 34.3116 71.4801 34.2978 71.5516C33.8737 73.747 33.4784 75.9482 33.0424 78.1245C32.5761 78.2192 30.7199 78.231 30.1257 78.1447C29.8862 76.8822 29.6438 75.6049 29.3856 74.2437C29.2448 74.5016 29.2184 74.7012 29.1825 74.8977C29.0143 75.8169 28.8478 76.7364 28.6764 77.655C28.6447 77.8247 28.5931 77.9906 28.542 78.1925C28.0645 78.1955 27.6002 78.1984 27.0786 78.2012Z" fill="#1E4381"/>
<path d="M7.52415 75.03C7.99235 76.0797 8.44009 77.0901 8.89238 78.1107C8.81457 78.1576 8.76917 78.2085 8.72336 78.2089C8.08381 78.2141 7.44421 78.2124 6.77813 78.2124C6.703 78.0714 6.62089 77.9424 6.56243 77.8034C6.19297 76.9251 5.82974 76.0442 5.46208 75.1651C5.37285 74.9518 5.27471 74.7422 5.18655 74.5441C4.67617 74.4738 4.40176 74.4968 3.94261 74.6503C3.93146 74.7883 3.90925 74.9398 3.90864 75.0913C3.90518 75.948 3.90937 76.8047 3.90476 77.6614C3.90385 77.8317 3.94973 78.0135 3.79642 78.21C3.23447 78.2135 2.6415 78.25 2.03236 78.1821C2.01486 78.0827 1.99069 78.0094 1.99065 77.9361C1.98875 74.9194 1.98903 71.9028 1.98903 68.8788C2.30705 68.7294 2.62024 68.8048 2.92242 68.7978C3.22802 68.7907 3.53744 68.7665 3.85568 68.8277C3.95488 69.2884 3.89354 69.736 3.90457 70.1793C3.91521 70.6074 3.90687 71.036 3.90687 71.4643C3.90687 71.9099 3.90687 72.3555 3.90687 72.823C4.34751 72.9273 4.73913 72.8257 5.17346 72.7514C5.70748 71.4739 6.16368 70.1527 6.69249 68.871C7.10367 68.7744 7.90009 68.7565 8.8215 68.8236C8.78564 68.9537 8.76569 69.0826 8.71573 69.1986C8.16938 70.4666 7.61833 71.7326 7.06863 72.9992C7.0299 73.0884 6.99875 73.1818 6.9518 73.2664C6.85761 73.4362 6.87673 73.5917 6.95835 73.7646C7.14927 74.1689 7.323 74.5814 7.52415 75.03Z" fill="#1E4381"/>
<path d="M73.9988 47.0382C74.6347 47.0471 75.2141 47.019 75.7893 47.056C75.8182 47.1491 75.8493 47.2025 75.8493 47.2559C75.8516 51.3465 75.8514 55.4371 75.8514 59.5343C75.4942 59.6963 75.1414 59.6002 74.7999 59.617C74.4702 59.6332 74.1389 59.6261 73.8085 59.6189C73.4634 59.6114 73.1146 59.6539 72.7571 59.585C72.7392 59.487 72.7141 59.4138 72.7141 59.3406C72.7122 55.2697 72.7124 51.1987 72.7124 47.1022C72.8475 47.0779 72.9564 47.0443 73.0661 47.0412C73.3576 47.0332 73.6493 47.0383 73.9988 47.0382Z" fill="#1E4381"/>
<path d="M85.6303 74.391C85.6333 73.3779 85.6359 72.4232 85.6411 71.4686C85.6413 71.4335 85.6674 71.3986 85.6973 71.3241C85.9583 71.254 86.2488 71.3001 86.5338 71.2921C86.8052 71.2844 87.077 71.2904 87.3514 71.2904C87.428 71.3889 87.4967 71.4773 87.5739 71.5767C87.7347 71.502 87.8909 71.4269 88.0491 71.3564C88.7204 71.0573 89.41 71.0456 90.099 71.2668C90.7067 71.4618 91.145 71.8742 91.3727 72.4681C91.5179 72.8466 91.6364 73.2477 91.6849 73.6486C91.7902 74.5203 91.8076 75.3978 91.6275 76.2663C91.592 76.4374 91.5496 76.6084 91.4932 76.7735C91.2261 77.5545 90.6846 78.0396 89.8893 78.2421C89.2394 78.4076 88.5797 78.3955 87.9186 78.3404C87.8046 78.3309 87.6913 78.3128 87.5552 78.2958C87.439 78.77 87.5106 79.2365 87.497 79.6975C87.4839 80.1422 87.5018 80.5879 87.4866 81.0351C87.1717 81.1663 86.8779 81.1005 86.5927 81.1111C86.3023 81.122 86.0112 81.1135 85.7389 81.1135C85.5694 80.9195 85.6336 80.7158 85.6331 80.5292C85.6285 78.5026 85.6302 76.4761 85.6303 74.391ZM88.9897 72.8469C88.4706 72.7096 87.9989 72.851 87.5496 73.0592C87.4682 73.6137 87.4753 76.2048 87.5589 76.6641C87.6406 76.6829 87.7316 76.7182 87.824 76.7225C88.1151 76.736 88.4079 76.7577 88.6978 76.74C89.2608 76.7057 89.6045 76.4312 89.7448 75.8888C89.9386 75.1395 89.9317 74.3827 89.7316 73.6348C89.6376 73.2837 89.4498 72.9923 88.9897 72.8469Z" fill="#1E4381"/>
<path d="M81.2203 78.3734C80.7995 78.36 80.4353 78.3464 80.0496 78.3321C79.9444 78.6381 79.9949 78.9304 79.9873 79.2155C79.9791 79.5271 79.9854 79.839 79.9854 80.1508C79.9854 80.4412 79.9854 80.7316 79.9854 81.0439C79.6635 81.1673 79.3523 81.1062 79.0506 81.1101C78.7639 81.1138 78.472 81.1497 78.2417 81.0895C78.1802 81.0341 78.1626 81.0236 78.153 81.0081C78.1431 80.9921 78.137 80.9715 78.1361 80.9526C78.1297 80.8167 78.1205 80.6808 78.1206 80.5449C78.1221 77.5247 78.1245 74.5045 78.1287 71.4843C78.1287 71.4484 78.1537 71.4127 78.1669 71.3773C78.5441 71.2676 79.0808 71.2507 79.8921 71.3232C79.9369 71.4012 79.9829 71.4814 80.0336 71.5697C80.0923 71.555 80.1528 71.552 80.2008 71.5259C80.7059 71.2513 81.2358 71.0951 81.8191 71.1225C82.8914 71.1728 83.6234 71.6869 83.9654 72.7033C84.0946 73.0874 84.1766 73.4954 84.2197 73.8989C84.3028 74.6758 84.2985 75.4566 84.1398 76.2267C84.089 76.473 84.0139 76.7177 83.9205 76.9512C83.6833 77.5445 83.2562 77.9458 82.6514 78.1572C82.2057 78.3131 81.7472 78.3794 81.2203 78.3734ZM79.9738 74.224C79.9738 74.6317 79.9677 75.0396 79.9755 75.4471C79.9832 75.8483 79.9366 76.2538 80.018 76.6843C80.4875 76.7511 80.9283 76.7916 81.3689 76.7237C81.7587 76.6636 82.0496 76.4462 82.1851 76.0638C82.2494 75.8825 82.2903 75.6915 82.3259 75.5018C82.4388 74.9006 82.3986 74.3008 82.2592 73.7109C82.1257 73.1456 81.7951 72.8373 81.2666 72.7989C80.8188 72.7664 80.3859 72.85 79.9738 73.1248C79.9738 73.4541 79.9738 73.7822 79.9738 74.224Z" fill="#1E4381"/>
<path d="M47.6412 78.2625C46.8056 78.0372 46.3535 77.4861 46.1234 76.7338C45.8339 75.7873 45.8125 74.8161 45.9315 73.8426C45.976 73.4783 46.0587 73.1136 46.1691 72.7633C46.4374 71.9121 47.0788 71.2075 48.3473 71.1285C48.7313 71.1046 49.1209 71.1601 49.5072 71.1887C49.7182 71.2043 49.9277 71.2398 50.1431 71.2669C50.2609 70.9554 50.2005 70.6618 50.2098 70.3749C50.2198 70.0638 50.205 69.7519 50.2141 69.4407C50.2224 69.1542 50.1691 68.8618 50.2702 68.5422C50.8541 68.5185 51.4273 68.5138 51.9612 68.5433C52.0137 68.5944 52.0311 68.6059 52.0406 68.6221C52.0498 68.6379 52.0543 68.6582 52.0551 68.6768C52.0608 68.8127 52.0692 68.9487 52.0691 69.0847C52.068 72.0628 52.0659 75.041 52.0622 78.0191C52.0622 78.0558 52.0386 78.0925 52.0195 78.1484C51.9562 78.1633 51.8828 78.1946 51.809 78.1956C51.4012 78.2013 50.993 78.1912 50.5855 78.204C50.3906 78.2101 50.2535 78.1282 50.1183 77.9784C49.3401 78.3025 48.5379 78.5001 47.6412 78.2625ZM50.2109 73.0903C50.2089 72.9612 50.1622 72.857 50.0236 72.84C49.6981 72.7999 49.3721 72.7589 49.045 72.7379C48.4992 72.7027 48.0485 72.9185 47.8788 73.6375C47.7075 74.3632 47.6981 75.0995 47.8605 75.8306C47.9906 76.4163 48.3325 76.7049 48.9267 76.695C49.3487 76.6881 49.7709 76.6333 50.1529 76.4733C50.1761 76.4131 50.2016 76.3776 50.2018 76.3419C50.2071 75.2945 50.2098 74.2471 50.2109 73.0903Z" fill="#1E4381"/>
<path d="M124.768 76.6123C124.768 77.1555 124.768 77.6406 124.768 78.1148C124.296 78.2292 123.407 78.231 122.922 78.1206C122.917 77.9381 122.908 77.7468 122.907 77.5555C122.905 76.504 122.913 75.4524 122.9 74.401C122.896 74.0923 122.848 73.7819 122.795 73.4765C122.723 73.0549 122.437 72.8402 122.031 72.7936C121.841 72.7718 121.642 72.7819 121.453 72.8153C121.191 72.8616 120.907 72.8481 120.661 73.067C120.62 73.901 120.649 74.7555 120.643 75.6092C120.637 76.4434 120.646 77.2778 120.638 78.0974C120.227 78.2227 119.719 78.2403 118.863 78.1697C118.717 78.0093 118.78 77.8056 118.779 77.62C118.775 75.5365 118.777 73.453 118.777 71.3694C118.777 70.61 118.775 69.8506 118.778 69.0911C118.778 68.9187 118.791 68.7462 118.799 68.5507C119.408 68.5507 119.986 68.5507 120.593 68.5507C120.61 68.6962 120.639 68.8272 120.639 68.9583C120.644 69.6788 120.64 70.3993 120.643 71.1197C120.644 71.2493 120.666 71.3787 120.682 71.5445C120.879 71.4703 121.042 71.4148 121.2 71.3488C121.677 71.1503 122.172 71.0891 122.684 71.1187C123.635 71.1736 124.233 71.6303 124.526 72.5478C124.681 73.0325 124.758 73.5329 124.761 74.0422C124.766 74.8795 124.766 75.7168 124.768 76.6123Z" fill="#1E4381"/>
<path d="M106.813 71.2489C107.424 71.203 107.985 71.1423 108.546 71.132C108.853 71.1263 109.167 71.1793 109.467 71.2524C110.145 71.4179 110.6 71.8399 110.761 72.5318C110.826 72.8135 110.863 73.1073 110.868 73.3964C110.883 74.1944 110.873 74.9928 110.874 75.791C110.874 75.9273 110.871 76.0637 110.875 76.1998C110.89 76.675 110.906 76.7053 111.333 77.0478C111.317 77.4483 111.3 77.8725 111.282 78.3266C110.548 78.4405 109.909 78.2919 109.311 77.9199C109.069 78.0037 108.833 78.0853 108.596 78.168C108.055 78.3572 107.497 78.4075 106.93 78.3627C105.943 78.2845 105.308 77.7025 105.178 76.7213C105.13 76.3581 105.132 75.9802 105.17 75.6154C105.242 74.9383 105.604 74.456 106.262 74.2385C106.537 74.1478 106.822 74.0769 107.108 74.039C107.551 73.9806 107.998 73.9593 108.443 73.9203C108.613 73.9053 108.784 73.8847 108.949 73.8672C109.049 73.6294 109.023 73.4146 108.989 73.2075C108.947 72.9525 108.787 72.7887 108.525 72.753C108.372 72.7321 108.215 72.722 108.06 72.7267C107.342 72.7487 106.624 72.7778 105.906 72.8036C105.832 72.8063 105.757 72.8039 105.652 72.8039C105.584 72.3782 105.563 71.98 105.58 71.5535C105.962 71.3725 106.374 71.3569 106.813 71.2489ZM107.313 76.7733C107.906 76.9185 108.475 76.8512 109.014 76.5594C109.014 76.2081 109.015 75.8401 109.012 75.4722C109.012 75.3984 108.993 75.3249 108.983 75.2586C108.524 75.1955 107.75 75.24 107.473 75.3478C107.242 75.4381 107.076 75.6014 107.036 75.8507C106.986 76.1612 106.966 76.4746 107.313 76.7733Z" fill="#1E4381"/>
<path d="M39.1822 76.9782C38.9513 76.4277 38.8568 75.8945 38.8477 75.3442C38.837 74.7017 38.8309 74.061 38.9743 73.427C39.2678 72.129 40.001 71.1782 41.7697 71.1288C42.0967 71.1197 42.4312 71.1487 42.7526 71.2103C43.9336 71.4368 44.6234 72.1651 44.8195 73.3572C44.8925 73.8009 44.9349 74.2435 44.8441 74.6919C44.7908 74.9549 44.8331 75.2342 44.7277 75.5184C44.0632 75.5912 43.4065 75.5427 42.752 75.5514C42.0939 75.5601 41.4356 75.5533 40.7822 75.5533C40.7235 76.2115 40.9248 76.5256 41.486 76.6583C41.6917 76.707 41.9087 76.7325 42.1198 76.7282C42.7796 76.7146 43.4391 76.682 44.0986 76.6559C44.2523 76.6498 44.4059 76.6401 44.5865 76.6306C44.717 77.0773 44.672 77.5143 44.6521 77.9897C44.3605 78.0548 44.0806 78.1204 43.7993 78.1797C43.0738 78.3326 42.34 78.4075 41.5996 78.3661C41.2913 78.3488 40.979 78.3078 40.6807 78.2307C40.0077 78.0567 39.4929 77.6697 39.1822 76.9782ZM41.6627 72.6601C40.8789 72.8853 40.6674 73.2125 40.7509 74.0706C41.2375 74.1754 42.6511 74.1647 43.0325 74.0522C43.1104 73.7562 43.0221 73.4763 42.9283 73.2022C42.8488 72.97 42.6839 72.7977 42.4417 72.7431C42.2182 72.6926 41.986 72.6808 41.6627 72.6601Z" fill="#1E4381"/>
<path d="M76.6392 78.3538C75.954 78.3927 75.3499 78.2901 74.8276 77.9326C74.3801 78.0622 73.9601 78.2096 73.5284 78.3026C72.9728 78.4223 72.4092 78.4254 71.8595 78.2482C71.3485 78.0835 70.9836 77.7508 70.7986 77.2433C70.5659 76.6043 70.5411 75.9519 70.7201 75.2941C70.8457 74.8329 71.1281 74.4903 71.5649 74.3149C71.8854 74.1862 72.2287 74.0962 72.5703 74.0429C73.0102 73.9744 73.4587 73.9606 73.9033 73.9215C74.0743 73.9065 74.245 73.887 74.4131 73.8698C74.5287 73.6414 74.4931 73.4268 74.4671 73.2196C74.4336 72.9533 74.2828 72.7959 74.0194 72.7569C73.8287 72.7286 73.6326 72.725 73.4393 72.7293C72.6839 72.7464 71.9286 72.771 71.1427 72.7938C71.0365 72.3799 71.0563 71.9647 71.0857 71.5157C72.3149 71.2172 73.5248 70.981 74.7765 71.2158C75.9376 71.4335 76.2362 72.1961 76.3246 72.9274C76.3478 73.1197 76.3447 73.3158 76.3453 73.5102C76.3474 74.2885 76.3462 75.0667 76.3463 75.845C76.3463 75.9617 76.3464 76.0785 76.3476 76.1952C76.3512 76.5429 76.4243 76.855 76.7741 76.9995C76.7741 77.3934 76.7784 77.7619 76.7703 78.1302C76.7688 78.2005 76.7181 78.2697 76.6392 78.3538ZM74.4822 76.4988C74.4848 76.2858 74.4944 76.0727 74.4881 75.86C74.482 75.653 74.5247 75.4388 74.4319 75.2083C73.9563 75.1983 73.4991 75.2317 73.0465 75.3242C72.7496 75.385 72.5713 75.5821 72.5102 75.8693C72.4481 76.1611 72.4497 76.4594 72.687 76.6812C72.7785 76.7667 72.9211 76.8346 73.0445 76.8419C73.5279 76.8705 74.0075 76.8418 74.4822 76.4988Z" fill="#1E4381"/>
<path d="M66.3815 72.4534C66.7212 73.2044 66.8178 73.9458 66.7022 74.7172C66.6649 74.9665 66.6392 75.2176 66.6032 75.5082C66.4511 75.5234 66.3025 75.5506 66.1537 75.5512C65.1627 75.555 64.1716 75.5527 63.1805 75.5537C62.9888 75.5538 62.7971 75.5596 62.6061 75.5628C62.6099 76.2801 62.8093 76.5554 63.4104 76.679C63.5991 76.7178 63.7964 76.7338 63.9891 76.7292C64.6297 76.7138 65.2701 76.6851 65.9105 76.6598C66.0828 76.653 66.2548 76.6401 66.448 76.6287C66.5763 77.0892 66.4979 77.5292 66.5179 77.9874C65.2293 78.294 63.9761 78.5311 62.6853 78.2651C61.7636 78.0752 61.1697 77.524 60.9017 76.618C60.6368 75.7228 60.6419 74.8119 60.749 73.8975C60.7805 73.6285 60.8435 73.3603 60.9197 73.0999C61.233 72.0295 61.9222 71.3749 63.0374 71.1855C63.6817 71.0761 64.3157 71.1013 64.9404 71.282C65.5655 71.4629 66.0451 71.8382 66.3815 72.4534ZM64.7465 73.1092C64.582 72.8013 64.2929 72.698 63.9768 72.6594C63.6447 72.6189 63.3118 72.6432 63.0263 72.8358C62.9034 72.9186 62.7889 73.0451 62.7251 73.178C62.591 73.4578 62.5021 73.7562 62.5867 74.073C63.124 74.1792 64.5127 74.1635 64.8816 74.0462C64.9344 73.7551 64.8898 73.4725 64.7465 73.1092Z" fill="#1E4381"/>
<path d="M17.3913 76.363C17.1032 75.381 17.0893 74.4326 17.297 73.4855C17.3671 73.1662 17.4899 72.8491 17.6419 72.5591C18.1194 71.6487 18.9279 71.2389 19.9142 71.1401C20.3603 71.0955 20.8055 71.1185 21.2478 71.2198C22.1221 71.4198 22.7489 71.9176 23.1345 72.7288C23.4437 73.3792 23.5185 74.0747 23.5215 74.7792C23.5236 75.2863 23.4671 75.7915 23.3226 76.2814C22.9493 77.546 21.9904 78.3033 20.6712 78.3653C20.264 78.3845 19.859 78.3767 19.4533 78.2869C18.5501 78.0868 17.921 77.5637 17.5328 76.7339C17.4834 76.6282 17.446 76.5169 17.3913 76.363ZM21.031 76.6008C21.2818 76.4245 21.4268 76.1768 21.4974 75.8847C21.6782 75.1358 21.6787 74.3839 21.5042 73.6346C21.4696 73.4858 21.407 73.337 21.3272 73.2067C21.1675 72.9457 20.9299 72.78 20.6208 72.7481C20.4485 72.7302 20.2719 72.7278 20.0994 72.743C19.7434 72.7744 19.4814 72.9672 19.3177 73.2778C19.2374 73.4301 19.1835 73.6007 19.1433 73.7692C19.0293 74.2463 19.0095 74.7343 19.0651 75.2182C19.1003 75.524 19.1694 75.8336 19.2769 76.1214C19.415 76.4913 19.7042 76.7068 20.1063 76.7681C20.4047 76.8135 20.6839 76.7763 21.031 76.6008Z" fill="#1E4381"/>
<path d="M99.3761 77.983C98.7422 77.606 98.3584 77.0769 98.1541 76.4272C97.8003 75.3024 97.7922 74.1645 98.162 73.0435C98.4383 72.2057 98.9839 71.5956 99.8426 71.3147C100.66 71.0472 101.483 71.0473 102.302 71.3096C103.005 71.5347 103.518 71.9937 103.831 72.6559C103.971 72.9512 104.075 73.272 104.14 73.5924C104.316 74.4607 104.305 75.335 104.08 76.1932C103.726 77.5439 102.732 78.3171 101.333 78.3716C100.663 78.3977 100.016 78.3239 99.3761 77.983ZM102.161 73.3955C102.136 73.3431 102.115 73.2877 102.084 73.2388C101.767 72.7365 101.286 72.6617 100.758 72.7549C100.282 72.839 100.028 73.1772 99.9167 73.6187C99.7233 74.3853 99.7219 75.1599 99.9322 75.9224C100.093 76.5037 100.503 76.7891 101.093 76.7831C101.664 76.7772 102.038 76.5063 102.216 75.9514C102.275 75.7677 102.323 75.5749 102.337 75.3835C102.383 74.7435 102.411 74.1023 102.161 73.3955Z" fill="#1E4381"/>
<path d="M11.0567 71.2897C11.2831 71.2898 11.4569 71.2898 11.643 71.2898C11.7127 71.3934 11.7748 71.4858 11.8485 71.5954C12.0206 71.5181 12.1939 71.4345 12.3716 71.3616C13.0015 71.103 13.6455 71.0457 14.3099 71.2166C14.8746 71.3619 15.2765 71.6961 15.5207 72.2222C15.728 72.6684 15.8314 73.143 15.8665 73.6309C15.8888 73.9412 15.8932 74.2532 15.8942 74.5645C15.8975 75.5766 15.8955 76.5887 15.8956 77.6008C15.8956 77.7744 15.8956 77.9479 15.8956 78.1286C15.5744 78.2844 15.2618 78.2088 14.9613 78.2146C14.6757 78.2201 14.3842 78.2559 14.0687 78.1721C14.0571 78.0267 14.038 77.8959 14.0377 77.7651C14.0351 76.7529 14.038 75.7408 14.035 74.7287C14.0342 74.4564 14.0323 74.1829 14.0064 73.9123C13.988 73.7208 13.9438 73.5281 13.8834 73.3451C13.7909 73.0651 13.5858 72.9063 13.2949 72.8404C12.9207 72.7557 12.5608 72.832 12.2005 72.9107C12.0714 72.9389 11.9483 72.9941 11.7993 73.0449C11.7528 73.4863 11.7817 73.9126 11.7766 74.337C11.7713 74.7651 11.7754 75.1934 11.7754 75.6216C11.7754 76.0303 11.7754 76.4391 11.7754 76.8478C11.7754 77.2745 11.7754 77.7012 11.7754 78.13C11.4511 78.2837 11.1373 78.2095 10.8345 78.2146C10.5486 78.2194 10.2566 78.258 9.97439 78.1782C9.95122 78.1033 9.9203 78.0498 9.92023 77.9963C9.91769 75.8358 9.91762 73.6754 9.91963 71.5149C9.91968 71.4604 9.94661 71.4059 9.96563 71.3338C10.3087 71.2455 10.6589 71.3083 11.0567 71.2897Z" fill="#1E4381"/>
<path d="M112.944 77.4576C112.643 77.0331 112.504 76.5862 112.422 76.1249C112.26 75.2157 112.259 74.3018 112.421 73.3921C112.465 73.1445 112.541 72.9001 112.625 72.6626C112.895 71.9068 113.432 71.4352 114.205 71.2499C114.505 71.178 114.818 71.1423 115.127 71.1278C115.89 71.0919 116.624 71.278 117.367 71.4141C117.464 71.6742 117.411 71.9082 117.411 72.1361C117.412 72.3655 117.391 72.5949 117.379 72.8514C117.252 72.8614 117.159 72.8788 117.068 72.8741C116.757 72.8581 116.447 72.8233 116.137 72.8167C115.847 72.8106 115.553 72.8076 115.266 72.8448C114.66 72.9233 114.367 73.2093 114.273 73.8125C114.176 74.4317 114.178 75.0565 114.273 75.6759C114.362 76.2597 114.628 76.5418 115.203 76.6441C115.486 76.6944 115.781 76.6925 116.07 76.6866C116.4 76.6797 116.729 76.639 117.058 76.6197C117.151 76.6143 117.244 76.6323 117.366 76.6419C117.381 76.7771 117.402 76.8888 117.403 77.0009C117.407 77.3483 117.405 77.6958 117.405 78.074C116.46 78.2985 115.526 78.4506 114.572 78.343C113.937 78.2712 113.372 78.0254 112.944 77.4576Z" fill="#1E4381"/>
<path d="M37.3665 78.1415C36.7646 78.2209 36.2064 78.2177 35.6242 78.1673C35.6101 78.0323 35.5903 77.9207 35.5881 77.8088C35.5253 74.6842 35.5569 69.1712 35.6444 68.5609C35.9167 68.4913 36.2066 68.5352 36.4916 68.5279C36.7816 68.5205 37.0718 68.5263 37.3797 68.5263C37.4057 68.649 37.4418 68.7399 37.4419 68.8309C37.445 71.8479 37.4448 74.8649 37.4432 77.8819C37.4432 77.9582 37.4211 78.0346 37.3665 78.1415Z" fill="#1E4381"/>
<path d="M93.1301 73.8062C93.1301 72.9516 93.1301 72.1555 93.1301 71.3696C93.5874 71.2693 94.3444 71.2612 94.9319 71.3469C94.9581 71.5211 94.9859 71.7059 95.0206 71.9363C95.7254 71.6631 96.3633 71.2437 97.1516 71.1584C97.2137 71.7659 97.1708 72.3443 97.1816 72.9446C97.0438 72.9967 96.9237 73.054 96.7973 73.0878C96.3289 73.2131 95.8575 73.3269 95.3896 73.4536C95.2626 73.488 95.1437 73.5525 94.9917 73.6154C94.9917 74.3826 94.9919 75.1402 94.9916 75.8978C94.9914 76.6511 94.9928 77.4045 94.9903 78.1854C94.3513 78.2389 93.7782 78.2291 93.2441 78.2007C93.1913 78.1503 93.1743 78.1393 93.1648 78.1236C93.1551 78.1075 93.148 78.0869 93.1479 78.0682C93.1415 76.6671 93.1358 75.2659 93.1301 73.8062Z" fill="#1E4381"/>
<path d="M22.5555 46.5707C22.5555 46.3231 22.5555 46.1314 22.5555 45.9169C22.8842 45.7978 23.194 45.8614 23.4949 45.8509C23.8048 45.8402 24.1154 45.8441 24.4256 45.8498C24.7319 45.8554 25.0409 45.8213 25.3379 45.8785C25.435 46.3256 25.4426 48.2062 25.3544 48.7252C24.946 48.8067 23.3468 48.8249 22.6122 48.7529C22.5944 48.6522 22.5595 48.5433 22.5584 48.4341C22.5529 47.8317 22.5556 47.2292 22.5555 46.5707Z" fill="#1E4381"/>
<path d="M123.01 45.8501C123.353 45.8647 123.643 45.8158 123.918 45.8829C123.997 46.3455 124.016 47.7992 123.957 48.7238C123.878 48.7437 123.789 48.7843 123.701 48.785C122.964 48.7904 122.227 48.7896 121.49 48.7876C121.397 48.7873 121.305 48.7692 121.221 48.7602C121.143 48.294 121.124 46.774 121.185 45.9143C121.283 45.8943 121.39 45.8551 121.498 45.8536C121.983 45.8466 122.468 45.8503 123.01 45.8501Z" fill="#1E4381"/>
<path d="M6.58545 48.4908C6.5883 47.6778 6.59189 46.9187 6.59856 46.1595C6.59886 46.1245 6.62679 46.0897 6.65829 46.0167C7.33071 45.9418 8.02305 46.0086 8.73428 45.9792C8.87863 46.4607 8.79552 46.9261 8.8062 47.3833C8.81656 47.8273 8.83142 48.2739 8.78921 48.7414C8.6464 48.7556 8.53514 48.7755 8.42378 48.7761C7.89913 48.7791 7.37445 48.775 6.8498 48.7772C6.68812 48.7779 6.59101 48.7169 6.58545 48.4908Z" fill="#1E4381"/>
<path d="M5.00638 48.7771C4.48833 48.7742 4.02661 48.7712 3.57526 48.7682C3.47948 48.3223 3.45921 46.7848 3.5313 46.0709C3.89998 45.9626 5.04051 45.9463 5.64461 46.0406C5.73242 46.4522 5.75077 47.9984 5.67352 48.7178C5.48585 48.8264 5.26803 48.7556 5.00638 48.7771Z" fill="#1E4381"/>
<path d="M88.5735 62.786C88.5735 62.0497 88.5735 61.369 88.5735 60.6755C88.9531 60.5389 89.3223 60.6122 89.683 60.6035C90.0285 60.5951 90.3768 60.5772 90.7131 60.6207C90.816 61.0538 90.8285 62.628 90.7399 63.1818C90.3412 63.2735 89.3766 63.2899 88.6285 63.2128C88.6112 63.0959 88.5924 62.9688 88.5735 62.786Z" fill="#1E4381"/>
<path d="M160.343 75.6449C159.463 75.4791 158.559 75.51 157.65 75.6455C157.366 75.6878 157.071 75.6521 156.777 75.6309C157.673 75.4141 158.564 75.1755 159.499 75.2032C159.812 75.2125 160.116 75.2619 160.438 75.4089C160.353 75.4325 160.237 75.4256 160.035 75.3925C159.501 75.2899 159.054 75.291 158.609 75.4039C159.069 75.4265 159.529 75.4489 159.99 75.4714C160.1 75.5199 160.21 75.5683 160.343 75.6449Z" fill="#008CCA"/>
</svg>
