<?xml version="1.0" encoding="utf-8"?>
<!-- Generator: Adobe Illustrator 26.0.3, SVG Export Plug-In . SVG Version: 6.00 Build 0)  -->
<svg version="1.1" id="Layer_1" xmlns="http://www.w3.org/2000/svg" xmlns:xlink="http://www.w3.org/1999/xlink" x="0px" y="0px"
	 viewBox="0 0 999.4 398.1" style="enable-background:new 0 0 999.4 398.1;" xml:space="preserve">
<style type="text/css">
	.st0{fill:#292929;}
	.st1{fill:url(#SVGID_1_);}
	.st2{fill:url(#SVGID_00000135652784278491322280000009671452152791786924_);}
	.st3{fill:url(#SVGID_00000054263264153745633060000007268712438003610815_);}
	.st4{fill:url(#SVGID_00000041975445599940842400000013944219178383732898_);}
	.st5{fill:url(#SVGID_00000116943842813529704400000000494501423068326845_);}
	.st6{fill:url(#SVGID_00000124869307616683954630000002275429652556072867_);}
	.st7{fill:url(#SVGID_00000070118923401552558150000009959902543561835709_);}
	.st8{fill:url(#SVGID_00000079464739209269678710000016246927527495940488_);}
	.st9{fill:url(#SVGID_00000056405354166778854060000002731202216749279142_);}
	.st10{fill:#FFFFFF;}
	.st11{fill:url(#SVGID_00000044157129361555596800000014548697214166243457_);}
	.st12{fill:url(#SVGID_00000155131904409101040970000009728230278046062749_);}
	.st13{fill:url(#SVGID_00000118392958329356702520000009849154598440280736_);}
	.st14{fill:url(#SVGID_00000070827806203239558910000004531876109858170035_);}
	.st15{fill:url(#SVGID_00000062192721991707302660000000109353552095616692_);}
	.st16{fill:url(#SVGID_00000078025790301751252610000004150264707051361677_);}
	.st17{fill:url(#SVGID_00000169516539135076766910000006512023216833357246_);}
	.st18{fill:url(#SVGID_00000000939457239280373280000015373974759371444876_);}
	.st19{fill:url(#SVGID_00000056409318197951190640000003596387073734176658_);}
	.st20{fill:url(#SVGID_00000018942783536400159570000013112339876105154731_);}
	.st21{fill:url(#SVGID_00000032643452538376986270000013280023532661439903_);}
	.st22{fill:url(#SVGID_00000009553785420136385860000013439353164396857510_);}
	.st23{fill:url(#SVGID_00000091004818174017931980000009486740826129310618_);}
	.st24{fill:url(#SVGID_00000003101311605279361610000006356758607605030563_);}
	.st25{fill:none;stroke:#292929;stroke-width:6;stroke-miterlimit:10;}
</style>
<g>
	<linearGradient id="SVGID_1_" gradientUnits="userSpaceOnUse" x1="0" y1="199.0344" x2="999.41" y2="199.0344">
		<stop  offset="0" style="stop-color:#3BFF9D"/>
		<stop  offset="1" style="stop-color:#3BFFC8"/>
	</linearGradient>
	<path class="st1" d="M922,398.1H77.4C34.7,398.1,0,363.4,0,320.6V77.4C0,34.7,34.7,0,77.4,0H922c42.8,0,77.4,34.7,77.4,77.4v243.2
		C999.4,363.4,964.7,398.1,922,398.1z"/>
	<g>
		<g>
			<polygon class="st0" points="864.9,126.3 811.5,330.4 811.3,330.8 853,330.8 906.6,126.3 			"/>
		</g>
		<g>
			<path class="st0" d="M203.5,242.4c-5.5,2.9-13,4.6-20.1,4.6c-15,0-23.5-2.4-24.4-14.5h0v-0.8c0-0.5-0.1-1-0.1-1.5V195l0.1-4.2
				v-24.9h-0.1v-10.6l0.1-4.2v-24l-37.2,4.9c25.2-4.9,39.6-24.8,39.6-44.6V75.2h-41.8v57.1l-2.4,0.7v105.8
				c1.4,29.7,21,47.4,53.1,47.4c11.4,0,23.9-2.6,33.5-6.9l0.2-0.1v-37.1L203.5,242.4z"/>
		</g>
		<g>
			<polygon class="st0" points="210.1,118.6 92.8,136.7 92.8,166.4 210.1,148.3 			"/>
		</g>
		<g>
			<polygon class="st0" points="210.1,162.1 92.8,180.2 92.8,208.6 210.1,190.5 			"/>
		</g>
		<g>
			<g>
				<path class="st0" d="M341.6,175.8c-1.7-33-22.3-52.6-55.9-52.6c-19.3,0-35.3,7.5-46.1,21.6c-10.8,14.1-16.5,34.8-16.5,59.9
					s5.7,45.9,16.5,59.9c10.8,14.1,26.8,21.6,46.1,21.6c33.6,0,54.3-19.7,55.9-52.9v49.8h41.8V126.6l-41.8,6.4 M343.8,204.7
					c0,29.3-15.4,48.2-39.1,48.2c-24.5,0-39.1-18-39.1-48.2c0-30.3,14.6-48.5,39.1-48.5c11.9,0,21.9,4.6,28.8,13.4
					C340.2,178.3,343.8,190.4,343.8,204.7z"/>
			</g>
		</g>
		<g>
			<g>
				<path class="st0" d="M505.3,123.2c-33.7,0-54.3,19.6-55.9,52.7V81.1l-41.8,6.4v195.6h41.8v-49.8c1.6,33.2,22.3,52.9,55.9,52.9
					c39.4,0,62.9-30.5,62.9-81.5S544.7,123.2,505.3,123.2z M486.3,252.9c-23.8,0-39.1-18.9-39.1-48.2c0-14.3,3.6-26.4,10.3-35
					c6.9-8.8,16.9-13.4,28.8-13.4c24.5,0,39.1,18.1,39.1,48.5C525.4,234.9,510.8,252.9,486.3,252.9z"/>
			</g>
			<g>
				<path class="st0" d="M681.9,123.2c-33.7,0-54.3,19.6-55.9,52.7V81.1l-41.8,6.4v195.6H626v-49.8c1.6,33.2,22.3,52.9,55.9,52.9
					c39.4,0,62.9-30.5,62.9-81.5S721.3,123.2,681.9,123.2z M663,252.9c-23.8,0-39.1-18.9-39.1-48.2c0-14.3,3.6-26.4,10.3-35
					c6.9-8.8,16.9-13.4,28.8-13.4c24.5,0,39.1,18.1,39.1,48.5C702.1,234.9,687.5,252.9,663,252.9z"/>
			</g>
		</g>
		<g>
			<polygon class="st0" points="744.9,126.3 789.5,126.3 825.8,282.9 785.8,282.9 			"/>
		</g>
	</g>
</g>
</svg>
