<svg width="188" height="44" viewBox="0 0 188 44" fill="none" xmlns="http://www.w3.org/2000/svg">
<g clip-path="url(#clip0_412_82)">
<path d="M142.15 43.9034V40.9833C142.15 39.8663 141.477 39.1349 140.323 39.1349C139.745 39.1349 139.118 39.3277 138.686 39.9627C138.35 39.4297 137.868 39.1349 137.145 39.1349C136.663 39.1349 136.181 39.2823 135.8 39.8153V39.2313H134.791V43.9034H135.8V41.3235C135.8 40.4957 136.231 40.1045 136.904 40.1045C137.576 40.1045 137.913 40.5411 137.913 41.3235V43.9034H138.922V41.3235C138.922 40.4957 139.404 40.1045 140.026 40.1045C140.698 40.1045 141.034 40.5411 141.034 41.3235V43.9034H142.15ZM157.114 39.2313H155.477V37.8194H154.468V39.2313H153.555V40.1555H154.468V42.2988C154.468 43.3704 154.9 43.9998 156.054 43.9998C156.486 43.9998 156.968 43.8524 157.304 43.6596L157.013 42.7808C156.721 42.9735 156.385 43.0246 156.144 43.0246C155.662 43.0246 155.472 42.7297 155.472 42.2478V40.1555H157.108V39.2313H157.114ZM165.677 39.1292C165.1 39.1292 164.713 39.424 164.472 39.8096V39.2256H163.464V43.8978H164.472V41.2668C164.472 40.49 164.809 40.0478 165.436 40.0478C165.627 40.0478 165.868 40.0988 166.064 40.1442L166.355 39.1689C166.154 39.1292 165.868 39.1292 165.677 39.1292ZM152.737 39.6168C152.255 39.2766 151.582 39.1292 150.859 39.1292C149.705 39.1292 148.937 39.7132 148.937 40.6375C148.937 41.4143 149.514 41.8565 150.523 41.9983L151.005 42.0493C151.532 42.1457 151.823 42.2931 151.823 42.5369C151.823 42.8771 151.436 43.121 150.764 43.121C150.091 43.121 149.559 42.8771 149.223 42.6333L148.741 43.4101C149.267 43.8014 149.99 43.9942 150.713 43.9942C152.058 43.9942 152.832 43.3591 152.832 42.4859C152.832 41.6581 152.204 41.2215 151.246 41.0741L150.764 41.023C150.332 40.972 149.996 40.8756 149.996 40.5864C149.996 40.2462 150.332 40.0534 150.865 40.0534C151.442 40.0534 152.019 40.2972 152.311 40.4447L152.737 39.6168ZM179.576 39.1292C178.999 39.1292 178.612 39.424 178.371 39.8096V39.2256H177.363V43.8978H178.371V41.2668C178.371 40.49 178.708 40.0478 179.335 40.0478C179.526 40.0478 179.767 40.0988 179.963 40.1442L180.255 39.1802C180.058 39.1292 179.773 39.1292 179.576 39.1292ZM166.686 41.5673C166.686 42.9792 167.65 43.9998 169.141 43.9998C169.813 43.9998 170.295 43.8524 170.777 43.4668L170.295 42.639C169.909 42.9338 169.528 43.0756 169.09 43.0756C168.272 43.0756 167.695 42.4916 167.695 41.5673C167.695 40.6885 168.272 40.1045 169.09 40.0591C169.522 40.0591 169.909 40.2065 170.295 40.4957L170.777 39.6679C170.295 39.2766 169.813 39.1349 169.141 39.1349C167.65 39.1292 166.686 40.1555 166.686 41.5673ZM176.018 41.5673V39.2313H175.009V39.8153C174.673 39.3787 174.191 39.1349 173.563 39.1349C172.263 39.1349 171.254 40.1555 171.254 41.5673C171.254 42.9792 172.263 43.9998 173.563 43.9998C174.235 43.9998 174.717 43.756 175.009 43.3194V43.9034H176.018V41.5673ZM172.313 41.5673C172.313 40.7395 172.84 40.0591 173.709 40.0591C174.527 40.0591 175.104 40.6942 175.104 41.5673C175.104 42.3952 174.527 43.0756 173.709 43.0756C172.845 43.0246 172.313 42.3895 172.313 41.5673ZM160.241 39.1292C158.896 39.1292 157.932 40.1045 157.932 41.5617C157.932 43.0246 158.896 43.9942 160.291 43.9942C160.964 43.9942 161.636 43.8014 162.169 43.3591L161.687 42.6277C161.3 42.9225 160.818 43.1153 160.342 43.1153C159.714 43.1153 159.092 42.8204 158.946 41.9983H162.359C162.359 41.8509 162.359 41.7545 162.359 41.607C162.404 40.1045 161.536 39.1292 160.241 39.1292ZM160.241 40.0081C160.869 40.0081 161.3 40.3993 161.395 41.1251H158.991C159.086 40.4957 159.518 40.0081 160.241 40.0081ZM185.304 41.5673V37.3828H184.295V39.8153C183.959 39.3787 183.477 39.1349 182.849 39.1349C181.549 39.1349 180.54 40.1555 180.54 41.5673C180.54 42.9792 181.549 43.9998 182.849 43.9998C183.522 43.9998 184.004 43.756 184.295 43.3194V43.9034H185.304V41.5673ZM181.6 41.5673C181.6 40.7395 182.126 40.0591 182.995 40.0591C183.813 40.0591 184.391 40.6942 184.391 41.5673C184.391 42.3952 183.813 43.0756 182.995 43.0756C182.126 43.0246 181.6 42.3895 181.6 41.5673ZM147.827 41.5673V39.2313H146.818V39.8153C146.482 39.3787 146 39.1349 145.372 39.1349C144.072 39.1349 143.063 40.1555 143.063 41.5673C143.063 42.9792 144.072 43.9998 145.372 43.9998C146.045 43.9998 146.527 43.756 146.818 43.3194V43.9034H147.827V41.5673ZM144.078 41.5673C144.078 40.7395 144.604 40.0591 145.473 40.0591C146.291 40.0591 146.869 40.6942 146.869 41.5673C146.869 42.3952 146.291 43.0756 145.473 43.0756C144.604 43.0246 144.078 42.3895 144.078 41.5673Z" fill="black"/>
<path d="M167.555 3.74805H152.4V31.2934H167.555V3.74805Z" fill="#FF5A00"/>
<path d="M153.409 17.5206C153.409 11.9242 156.01 6.95722 160 3.74794C157.063 1.41186 153.359 0 149.318 0C139.745 0 132 7.83608 132 17.5206C132 27.2052 139.745 35.0412 149.318 35.0412C153.359 35.0412 157.063 33.6294 160 31.2933C156.004 28.1294 153.409 23.117 153.409 17.5206Z" fill="#EB001B"/>
<path d="M188 17.5206C188 27.2052 180.255 35.0412 170.682 35.0412C166.641 35.0412 162.937 33.6294 160 31.2933C164.041 28.0784 166.591 23.117 166.591 17.5206C166.591 11.9242 163.99 6.95722 160 3.74794C162.931 1.41186 166.636 0 170.677 0C180.255 0 188 7.88711 188 17.5206Z" fill="#F79E1B"/>
</g>
<g clip-path="url(#clip1_412_82)">
<path d="M46.7998 39.4808H38.051L43.5231 4.63184H52.2714L46.7998 39.4808Z" fill="#00579F"/>
<path d="M78.5149 5.48366C76.7892 4.77854 74.0522 4 70.6679 4C62.0283 4 55.9443 8.74514 55.9069 15.5293C55.8352 20.5346 60.2629 23.3147 63.5745 24.9836C66.9593 26.689 68.1098 27.8021 68.1098 29.3222C68.0754 31.6568 65.3748 32.733 62.8559 32.733C59.363 32.733 57.4915 32.1782 54.6473 30.8793L53.4953 30.3225L52.271 38.1453C54.3229 39.1081 58.1033 39.9626 62.0282 40C71.2081 40 77.1844 35.3283 77.2552 28.0987C77.2901 24.1316 74.9521 21.0919 69.9116 18.6079C66.8516 17.0134 64.9777 15.9382 64.9777 14.3068C65.0136 12.8236 66.5627 11.3045 70.0168 11.3045C72.861 11.2301 74.9507 11.9342 76.5338 12.6388L77.3251 13.0089L78.5149 5.48366Z" fill="#00579F"/>
<path d="M90.1427 27.135C90.8632 25.133 93.6356 17.3846 93.6356 17.3846C93.5992 17.459 94.3547 15.3456 94.7867 14.0482L95.3981 17.051C95.3981 17.051 97.0548 25.3927 97.4146 27.135C96.0473 27.135 91.8707 27.135 90.1427 27.135ZM100.942 4.63184H94.1748C92.0879 4.63184 90.5025 5.26157 89.6021 7.52327L76.6069 39.4803H85.7867C85.7867 39.4803 87.2981 35.1791 87.6229 34.2528C88.63 34.2528 97.56 34.2528 98.8556 34.2528C99.1067 35.4762 99.8995 39.4803 99.8995 39.4803H108L100.942 4.63184Z" fill="#00579F"/>
<path d="M30.744 4.63184L22.176 28.3955L21.2398 23.5759C19.6558 18.0148 14.6879 11.9728 9.14404 8.96849L16.9919 39.4438H26.2435L39.995 4.63184H30.744Z" fill="#00579F"/>
<path d="M14.2199 4.63184H0.144002L0 5.33597C10.9801 8.22789 18.252 15.1988 21.2397 23.5774L18.1797 7.56121C17.676 5.33548 16.1278 4.70526 14.2199 4.63184Z" fill="#FAA61A"/>
</g>
<defs>
<clipPath id="clip0_412_82">
<rect width="56" height="44" fill="white" transform="translate(132)"/>
</clipPath>
<clipPath id="clip1_412_82">
<rect width="108" height="36" fill="white" transform="translate(0 4)"/>
</clipPath>
</defs>
</svg>
